<?xml version="1.0" encoding="UTF-8" standalone="no"?>
<!DOCTYPE svg PUBLIC "-//W3C//DTD SVG 1.1//EN"
 "http://www.w3.org/Graphics/SVG/1.1/DTD/svg11.dtd">
<!-- Generated by graphviz version 14.1.3 (20260303.0454)
 -->
<!-- Title: G Pages: 1 -->
<svg width="930pt" height="1079pt"
 viewBox="0.00 0.00 930.00 1079.00" xmlns="http://www.w3.org/2000/svg" xmlns:xlink="http://www.w3.org/1999/xlink">
<g id="graph0" class="graph" transform="scale(1 1) rotate(0) translate(25.2 1053.36)">
<title>G</title>
<polygon fill="white" stroke="none" points="-25.2,25.2 -25.2,-1053.36 905.2,-1053.36 905.2,25.2 -25.2,25.2"/>
<text xml:space="preserve" text-anchor="middle" x="440" y="-1007.06" font-family="Arial" font-size="19.00">CPSTN | ERD final v1 &#45; peta relasi utama</text>
<g id="clust1" class="cluster">
<title>cluster_0</title>
<path fill="white" stroke="#dee5ea" d="M331,-468.84C331,-468.84 527,-468.84 527,-468.84 533,-468.84 539,-474.84 539,-480.84 539,-480.84 539,-977.36 539,-977.36 539,-983.36 533,-989.36 527,-989.36 527,-989.36 331,-989.36 331,-989.36 325,-989.36 319,-983.36 319,-977.36 319,-977.36 319,-480.84 319,-480.84 319,-474.84 325,-468.84 331,-468.84"/>
<text xml:space="preserve" text-anchor="middle" x="429" y="-968.26" font-family="Arial" font-size="19.00" fill="#175c59">Akun dan hunian</text>
</g>
<g id="clust2" class="cluster">
<title>cluster_1</title>
<path fill="white" stroke="#dee5ea" d="M47,-302.56C47,-302.56 296,-302.56 296,-302.56 302,-302.56 308,-308.56 308,-314.56 308,-314.56 308,-734 308,-734 308,-740 302,-746 296,-746 296,-746 47,-746 47,-746 41,-746 35,-740 35,-734 35,-734 35,-314.56 35,-314.56 35,-308.56 41,-302.56 47,-302.56"/>
<text xml:space="preserve" text-anchor="middle" x="171.5" y="-724.9" font-family="Arial" font-size="19.00" fill="#285f8f">Perangkat dan data</text>
</g>
<g id="clust3" class="cluster">
<title>cluster_2</title>
<path fill="white" stroke="#dee5ea" d="M328,-139.68C328,-139.68 460,-139.68 460,-139.68 466,-139.68 472,-145.68 472,-151.68 472,-151.68 472,-417.04 472,-417.04 472,-423.04 466,-429.04 460,-429.04 460,-429.04 328,-429.04 328,-429.04 322,-429.04 316,-423.04 316,-417.04 316,-417.04 316,-151.68 316,-151.68 316,-145.68 322,-139.68 328,-139.68"/>
<text xml:space="preserve" text-anchor="middle" x="394" y="-407.94" font-family="Arial" font-size="19.00" fill="#795527">Sesi komunal</text>
</g>
<g id="clust4" class="cluster">
<title>cluster_3</title>
<path fill="white" stroke="#dee5ea" d="M594,-8C594,-8 860,-8 860,-8 866,-8 872,-14 872,-20 872,-20 872,-591.12 872,-591.12 872,-597.12 866,-603.12 860,-603.12 860,-603.12 594,-603.12 594,-603.12 588,-603.12 582,-597.12 582,-591.12 582,-591.12 582,-20 582,-20 582,-14 588,-8 594,-8"/>
<text xml:space="preserve" text-anchor="middle" x="727" y="-582.02" font-family="Arial" font-size="19.00" fill="#654a89">Billing dan audit</text>
</g>
<!-- users -->
<g id="node1" class="node">
<title>users</title>
<path fill="#f5f8fa" stroke="#ccd5dd" d="M443,-950.56C443,-950.56 413,-950.56 413,-950.56 407,-950.56 401,-944.56 401,-938.56 401,-938.56 401,-914.08 401,-914.08 401,-908.08 407,-902.08 413,-902.08 413,-902.08 443,-902.08 443,-902.08 449,-902.08 455,-908.08 455,-914.08 455,-914.08 455,-938.56 455,-938.56 455,-944.56 449,-950.56 443,-950.56"/>
<text xml:space="preserve" text-anchor="middle" x="428" y="-930.22" font-family="Arial" font-size="13.00">users</text>
<text xml:space="preserve" text-anchor="middle" x="428" y="-914.62" font-family="Arial" font-size="13.00">id</text>
</g>
<!-- properties -->
<g id="node2" class="node">
<title>properties</title>
<path fill="#f5f8fa" stroke="#ccd5dd" d="M518.7,-850.08C518.7,-850.08 463.3,-850.08 463.3,-850.08 457.3,-850.08 451.3,-844.08 451.3,-838.08 451.3,-838.08 451.3,-798 451.3,-798 451.3,-792 457.3,-786 463.3,-786 463.3,-786 518.7,-786 518.7,-786 524.7,-786 530.7,-792 530.7,-798 530.7,-798 530.7,-838.08 530.7,-838.08 530.7,-844.08 524.7,-850.08 518.7,-850.08"/>
<text xml:space="preserve" text-anchor="middle" x="491" y="-829.74" font-family="Arial" font-size="13.00">properties</text>
<text xml:space="preserve" text-anchor="middle" x="491" y="-814.14" font-family="Arial" font-size="13.00">id</text>
<text xml:space="preserve" text-anchor="middle" x="491" y="-798.54" font-family="Arial" font-size="13.00">owner_id</text>
</g>
<!-- users&#45;&gt;properties -->
<g id="edge1" class="edge">
<title>users&#45;&gt;properties</title>
<path fill="none" stroke="#8c9aa8" d="M441.98,-901.73C449.78,-888.58 459.67,-871.89 468.53,-856.95"/>
<polygon fill="#8c9aa8" stroke="#8c9aa8" points="470.38,-858.28 471.74,-851.53 466.47,-855.96 470.38,-858.28"/>
<text xml:space="preserve" text-anchor="middle" x="470.06" y="-873.08" font-family="Arial" font-size="10.00">1 : N</text>
</g>
<!-- occupancies -->
<g id="node4" class="node">
<title>occupancies</title>
<path fill="#f5f8fa" stroke="#ccd5dd" d="M492.93,-556.52C492.93,-556.52 423.07,-556.52 423.07,-556.52 417.07,-556.52 411.07,-550.52 411.07,-544.52 411.07,-544.52 411.07,-488.84 411.07,-488.84 411.07,-482.84 417.07,-476.84 423.07,-476.84 423.07,-476.84 492.93,-476.84 492.93,-476.84 498.93,-476.84 504.93,-482.84 504.93,-488.84 504.93,-488.84 504.93,-544.52 504.93,-544.52 504.93,-550.52 498.93,-556.52 492.93,-556.52"/>
<text xml:space="preserve" text-anchor="middle" x="458" y="-536.18" font-family="Arial" font-size="13.00">occupancies</text>
<text xml:space="preserve" text-anchor="middle" x="458" y="-520.58" font-family="Arial" font-size="13.00">id</text>
<text xml:space="preserve" text-anchor="middle" x="458" y="-504.98" font-family="Arial" font-size="13.00">user_id</text>
<text xml:space="preserve" text-anchor="middle" x="458" y="-489.38" font-family="Arial" font-size="13.00">room_id</text>
</g>
<!-- users&#45;&gt;occupancies -->
<g id="edge3" class="edge">
<title>users&#45;&gt;occupancies</title>
<path fill="none" stroke="#8c9aa8" d="M428.5,-901.75C429.94,-833.92 434,-643.12 434,-643.12 434,-643.12 442.27,-599.88 449.11,-564.17"/>
<polygon fill="#8c9aa8" stroke="#8c9aa8" points="451.27,-564.98 450.25,-558.17 446.8,-564.13 451.27,-564.98"/>
<text xml:space="preserve" text-anchor="middle" x="442.18" y="-757" font-family="Arial" font-size="10.00">1 : N</text>
</g>
<!-- rfid_cards -->
<g id="node5" class="node">
<title>rfid_cards</title>
<path fill="#f5f8fa" stroke="#ccd5dd" d="M393.34,-850.08C393.34,-850.08 338.66,-850.08 338.66,-850.08 332.66,-850.08 326.66,-844.08 326.66,-838.08 326.66,-838.08 326.66,-798 326.66,-798 326.66,-792 332.66,-786 338.66,-786 338.66,-786 393.34,-786 393.34,-786 399.34,-786 405.34,-792 405.34,-798 405.34,-798 405.34,-838.08 405.34,-838.08 405.34,-844.08 399.34,-850.08 393.34,-850.08"/>
<text xml:space="preserve" text-anchor="middle" x="366" y="-829.74" font-family="Arial" font-size="13.00">rfid_cards</text>
<text xml:space="preserve" text-anchor="middle" x="366" y="-814.14" font-family="Arial" font-size="13.00">id</text>
<text xml:space="preserve" text-anchor="middle" x="366" y="-798.54" font-family="Arial" font-size="13.00">user_id</text>
</g>
<!-- users&#45;&gt;rfid_cards -->
<g id="edge5" class="edge">
<title>users&#45;&gt;rfid_cards</title>
<path fill="none" stroke="#8c9aa8" d="M413.17,-901.68C406.84,-891.58 400.88,-882.08 400.88,-882.08 400.88,-882.08 394.56,-870.65 387.3,-857.53"/>
<polygon fill="#8c9aa8" stroke="#8c9aa8" points="389.31,-856.47 384.17,-851.88 385.33,-858.67 389.31,-856.47"/>
<text xml:space="preserve" text-anchor="middle" x="411.44" y="-873.08" font-family="Arial" font-size="10.00">1 : N</text>
</g>
<!-- rooms -->
<g id="node3" class="node">
<title>rooms</title>
<path fill="#f5f8fa" stroke="#ccd5dd" d="M519.32,-707.2C519.32,-707.2 456.68,-707.2 456.68,-707.2 450.68,-707.2 444.68,-701.2 444.68,-695.2 444.68,-695.2 444.68,-655.12 444.68,-655.12 444.68,-649.12 450.68,-643.12 456.68,-643.12 456.68,-643.12 519.32,-643.12 519.32,-643.12 525.32,-643.12 531.32,-649.12 531.32,-655.12 531.32,-655.12 531.32,-695.2 531.32,-695.2 531.32,-701.2 525.32,-707.2 519.32,-707.2"/>
<text xml:space="preserve" text-anchor="middle" x="488" y="-686.86" font-family="Arial" font-size="13.00">rooms</text>
<text xml:space="preserve" text-anchor="middle" x="488" y="-671.26" font-family="Arial" font-size="13.00">id</text>
<text xml:space="preserve" text-anchor="middle" x="488" y="-655.66" font-family="Arial" font-size="13.00">property_id</text>
</g>
<!-- properties&#45;&gt;rooms -->
<g id="edge2" class="edge">
<title>properties&#45;&gt;rooms</title>
<path fill="none" stroke="#8c9aa8" d="M490.33,-785.77C489.89,-764.98 489.31,-737.51 488.83,-715.27"/>
<polygon fill="#8c9aa8" stroke="#8c9aa8" points="491.11,-715.3 488.7,-708.85 486.56,-715.4 491.11,-715.3"/>
<text xml:space="preserve" text-anchor="middle" x="500.42" y="-757" font-family="Arial" font-size="10.00">1 : N</text>
</g>
<!-- devices -->
<g id="node6" class="node">
<title>devices</title>
<path fill="#f5f8fa" stroke="#ccd5dd" d="M145.32,-707.2C145.32,-707.2 82.68,-707.2 82.68,-707.2 76.68,-707.2 70.68,-701.2 70.68,-695.2 70.68,-695.2 70.68,-655.12 70.68,-655.12 70.68,-649.12 76.68,-643.12 82.68,-643.12 82.68,-643.12 145.32,-643.12 145.32,-643.12 151.32,-643.12 157.32,-649.12 157.32,-655.12 157.32,-655.12 157.32,-695.2 157.32,-695.2 157.32,-701.2 151.32,-707.2 145.32,-707.2"/>
<text xml:space="preserve" text-anchor="middle" x="114" y="-686.86" font-family="Arial" font-size="13.00">devices</text>
<text xml:space="preserve" text-anchor="middle" x="114" y="-671.26" font-family="Arial" font-size="13.00">id</text>
<text xml:space="preserve" text-anchor="middle" x="114" y="-655.66" font-family="Arial" font-size="13.00">property_id</text>
</g>
<!-- properties&#45;&gt;devices -->
<g id="edge6" class="edge">
<title>properties&#45;&gt;devices</title>
<path fill="none" stroke="#8c9aa8" d="M450.87,-800.43C433.03,-793.05 416,-786 416,-786 416,-786 168,-746 168,-746 168,-746 155.73,-730.13 142.89,-713.53"/>
<polygon fill="#8c9aa8" stroke="#8c9aa8" points="144.86,-712.35 139.08,-708.6 141.26,-715.13 144.86,-712.35"/>
<text xml:space="preserve" text-anchor="middle" x="302.56" y="-757" font-family="Arial" font-size="10.00">1 : N</text>
</g>
<!-- billing_periods -->
<g id="node13" class="node">
<title>billing_periods</title>
<path fill="#f5f8fa" stroke="#ccd5dd" d="M851.76,-564.32C851.76,-564.32 726.24,-564.32 726.24,-564.32 720.24,-564.32 714.24,-558.32 714.24,-552.32 714.24,-552.32 714.24,-481.04 714.24,-481.04 714.24,-475.04 720.24,-469.04 726.24,-469.04 726.24,-469.04 851.76,-469.04 851.76,-469.04 857.76,-469.04 863.76,-475.04 863.76,-481.04 863.76,-481.04 863.76,-552.32 863.76,-552.32 863.76,-558.32 857.76,-564.32 851.76,-564.32"/>
<text xml:space="preserve" text-anchor="middle" x="789" y="-543.98" font-family="Arial" font-size="13.00">billing_periods</text>
<text xml:space="preserve" text-anchor="middle" x="789" y="-528.38" font-family="Arial" font-size="13.00">id</text>
<text xml:space="preserve" text-anchor="middle" x="789" y="-512.78" font-family="Arial" font-size="13.00">property_id</text>
<text xml:space="preserve" text-anchor="middle" x="789" y="-497.18" font-family="Arial" font-size="13.00">supersedes_period_id</text>
<text xml:space="preserve" text-anchor="middle" x="789" y="-481.58" font-family="Arial" font-size="13.00">finalized_by</text>
</g>
<!-- properties&#45;&gt;billing_periods -->
<g id="edge16" class="edge">
<title>properties&#45;&gt;billing_periods</title>
<path fill="none" stroke="#8c9aa8" d="M530.95,-793.78C566.53,-773.06 613,-746 613,-746 613,-746 696.13,-638.16 748.13,-570.7"/>
<polygon fill="#8c9aa8" stroke="#8c9aa8" points="749.66,-572.45 751.82,-565.91 746.05,-569.67 749.66,-572.45"/>
<text xml:space="preserve" text-anchor="middle" x="702.77" y="-672.16" font-family="Arial" font-size="10.00">1 : N</text>
</g>
<!-- audit_logs -->
<g id="node18" class="node">
<title>audit_logs</title>
<path fill="#f5f8fa" stroke="#ccd5dd" d="M680.18,-556.52C680.18,-556.52 603.82,-556.52 603.82,-556.52 597.82,-556.52 591.82,-550.52 591.82,-544.52 591.82,-544.52 591.82,-488.84 591.82,-488.84 591.82,-482.84 597.82,-476.84 603.82,-476.84 603.82,-476.84 680.18,-476.84 680.18,-476.84 686.18,-476.84 692.18,-482.84 692.18,-488.84 692.18,-488.84 692.18,-544.52 692.18,-544.52 692.18,-550.52 686.18,-556.52 680.18,-556.52"/>
<text xml:space="preserve" text-anchor="middle" x="642" y="-536.18" font-family="Arial" font-size="13.00">audit_logs</text>
<text xml:space="preserve" text-anchor="middle" x="642" y="-520.58" font-family="Arial" font-size="13.00">id</text>
<text xml:space="preserve" text-anchor="middle" x="642" y="-504.98" font-family="Arial" font-size="13.00">property_id</text>
<text xml:space="preserve" text-anchor="middle" x="642" y="-489.38" font-family="Arial" font-size="13.00">actor_user_id</text>
</g>
<!-- properties&#45;&gt;audit_logs -->
<g id="edge25" class="edge">
<title>properties&#45;&gt;audit_logs</title>
<path fill="none" stroke="#8c9aa8" d="M513.52,-785.67C527.18,-766.64 542,-746 542,-746 542,-746 592.47,-630.76 621.7,-564.02"/>
<polygon fill="#8c9aa8" stroke="#8c9aa8" points="623.68,-565.18 624.2,-558.32 619.51,-563.36 623.68,-565.18"/>
<text xml:space="preserve" text-anchor="middle" x="597.57" y="-672.16" font-family="Arial" font-size="10.00">1 : N</text>
</g>
<!-- rooms&#45;&gt;occupancies -->
<g id="edge4" class="edge">
<title>rooms&#45;&gt;occupancies</title>
<path fill="none" stroke="#8c9aa8" d="M482,-642.87C477.71,-620.48 471.86,-589.95 467,-564.65"/>
<polygon fill="#8c9aa8" stroke="#8c9aa8" points="469.28,-564.42 465.82,-558.46 464.81,-565.27 469.28,-564.42"/>
<text xml:space="preserve" text-anchor="middle" x="488" y="-614.12" font-family="Arial" font-size="10.00">1 : N</text>
</g>
<!-- meters -->
<g id="node8" class="node">
<title>meters</title>
<path fill="#f5f8fa" stroke="#ccd5dd" d="M288.36,-564.32C288.36,-564.32 181.64,-564.32 181.64,-564.32 175.64,-564.32 169.64,-558.32 169.64,-552.32 169.64,-552.32 169.64,-481.04 169.64,-481.04 169.64,-475.04 175.64,-469.04 181.64,-469.04 181.64,-469.04 288.36,-469.04 288.36,-469.04 294.36,-469.04 300.36,-475.04 300.36,-481.04 300.36,-481.04 300.36,-552.32 300.36,-552.32 300.36,-558.32 294.36,-564.32 288.36,-564.32"/>
<text xml:space="preserve" text-anchor="middle" x="235" y="-543.98" font-family="Arial" font-size="13.00">meters</text>
<text xml:space="preserve" text-anchor="middle" x="235" y="-528.38" font-family="Arial" font-size="13.00">id</text>
<text xml:space="preserve" text-anchor="middle" x="235" y="-512.78" font-family="Arial" font-size="13.00">device_id</text>
<text xml:space="preserve" text-anchor="middle" x="235" y="-497.18" font-family="Arial" font-size="13.00">room_id</text>
<text xml:space="preserve" text-anchor="middle" x="235" y="-481.58" font-family="Arial" font-size="13.00">communal_load_id</text>
</g>
<!-- rooms&#45;&gt;meters -->
<g id="edge8" class="edge">
<title>rooms&#45;&gt;meters</title>
<path fill="none" stroke="#8c9aa8" d="M444.54,-656.42C393,-635.38 314,-603.12 314,-603.12 314,-603.12 299.74,-587.7 283.34,-569.96"/>
<polygon fill="#8c9aa8" stroke="#8c9aa8" points="285.31,-568.74 279.23,-565.51 281.97,-571.83 285.31,-568.74"/>
<text xml:space="preserve" text-anchor="middle" x="371.22" y="-614.12" font-family="Arial" font-size="10.00">1 : N</text>
</g>
<!-- room_bills -->
<g id="node15" class="node">
<title>room_bills</title>
<path fill="#f5f8fa" stroke="#ccd5dd" d="M851.78,-382.44C851.78,-382.44 760.22,-382.44 760.22,-382.44 754.22,-382.44 748.22,-376.44 748.22,-370.44 748.22,-370.44 748.22,-314.76 748.22,-314.76 748.22,-308.76 754.22,-302.76 760.22,-302.76 760.22,-302.76 851.78,-302.76 851.78,-302.76 857.78,-302.76 863.78,-308.76 863.78,-314.76 863.78,-314.76 863.78,-370.44 863.78,-370.44 863.78,-376.44 857.78,-382.44 851.78,-382.44"/>
<text xml:space="preserve" text-anchor="middle" x="806" y="-362.1" font-family="Arial" font-size="13.00">room_bills</text>
<text xml:space="preserve" text-anchor="middle" x="806" y="-346.5" font-family="Arial" font-size="13.00">id</text>
<text xml:space="preserve" text-anchor="middle" x="806" y="-330.9" font-family="Arial" font-size="13.00">billing_period_id</text>
<text xml:space="preserve" text-anchor="middle" x="806" y="-315.3" font-family="Arial" font-size="13.00">room_id</text>
</g>
<!-- rooms&#45;&gt;room_bills -->
<g id="edge20" class="edge">
<title>rooms&#45;&gt;room_bills</title>
<path fill="none" stroke="#8c9aa8" d="M500.36,-642.79C507.86,-623.76 516,-603.12 516,-603.12 516,-603.12 559.88,-468.84 559.88,-468.84 559.88,-468.84 737,-429.04 737,-429.04 737,-429.04 752.9,-409.36 769.43,-388.89"/>
<polygon fill="#8c9aa8" stroke="#8c9aa8" points="771.06,-390.48 773.38,-384 767.52,-387.62 771.06,-390.48"/>
<text xml:space="preserve" text-anchor="middle" x="570.44" y="-513.68" font-family="Arial" font-size="10.00">1 : N</text>
</g>
<!-- session_participants -->
<g id="node12" class="node">
<title>session_participants</title>
<path fill="#f5f8fa" stroke="#ccd5dd" d="M451.69,-242.96C451.69,-242.96 336.31,-242.96 336.31,-242.96 330.31,-242.96 324.31,-236.96 324.31,-230.96 324.31,-230.96 324.31,-159.68 324.31,-159.68 324.31,-153.68 330.31,-147.68 336.31,-147.68 336.31,-147.68 451.69,-147.68 451.69,-147.68 457.69,-147.68 463.69,-153.68 463.69,-159.68 463.69,-159.68 463.69,-230.96 463.69,-230.96 463.69,-236.96 457.69,-242.96 451.69,-242.96"/>
<text xml:space="preserve" text-anchor="middle" x="394" y="-222.62" font-family="Arial" font-size="13.00">session_participants</text>
<text xml:space="preserve" text-anchor="middle" x="394" y="-207.02" font-family="Arial" font-size="13.00">id</text>
<text xml:space="preserve" text-anchor="middle" x="394" y="-191.42" font-family="Arial" font-size="13.00">usage_session_id</text>
<text xml:space="preserve" text-anchor="middle" x="394" y="-175.82" font-family="Arial" font-size="13.00">occupancy_id</text>
<text xml:space="preserve" text-anchor="middle" x="394" y="-160.22" font-family="Arial" font-size="13.00">rfid_card_id</text>
</g>
<!-- occupancies&#45;&gt;session_participants -->
<g id="edge14" class="edge">
<title>occupancies&#45;&gt;session_participants</title>
<path fill="none" stroke="#8c9aa8" d="M456.4,-476.47C453.82,-413.05 449,-294.96 449,-294.96 449,-294.96 436.89,-273.24 424.03,-250.18"/>
<polygon fill="#8c9aa8" stroke="#8c9aa8" points="426.1,-249.22 420.95,-244.65 422.13,-251.44 426.1,-249.22"/>
<text xml:space="preserve" text-anchor="middle" x="464.95" y="-339.6" font-family="Arial" font-size="10.00">1 : N</text>
</g>
<!-- bill_shares -->
<g id="node16" class="node">
<title>bill_shares</title>
<path fill="#f5f8fa" stroke="#ccd5dd" d="M707.55,-235.16C707.55,-235.16 630.45,-235.16 630.45,-235.16 624.45,-235.16 618.45,-229.16 618.45,-223.16 618.45,-223.16 618.45,-167.48 618.45,-167.48 618.45,-161.48 624.45,-155.48 630.45,-155.48 630.45,-155.48 707.55,-155.48 707.55,-155.48 713.55,-155.48 719.55,-161.48 719.55,-167.48 719.55,-167.48 719.55,-223.16 719.55,-223.16 719.55,-229.16 713.55,-235.16 707.55,-235.16"/>
<text xml:space="preserve" text-anchor="middle" x="669" y="-214.82" font-family="Arial" font-size="13.00">bill_shares</text>
<text xml:space="preserve" text-anchor="middle" x="669" y="-199.22" font-family="Arial" font-size="13.00">id</text>
<text xml:space="preserve" text-anchor="middle" x="669" y="-183.62" font-family="Arial" font-size="13.00">room_bill_id</text>
<text xml:space="preserve" text-anchor="middle" x="669" y="-168.02" font-family="Arial" font-size="13.00">occupancy_id</text>
</g>
<!-- occupancies&#45;&gt;bill_shares -->
<g id="edge22" class="edge">
<title>occupancies&#45;&gt;bill_shares</title>
<path fill="none" stroke="#8c9aa8" d="M500.89,-476.53C516.78,-462.02 531,-449.04 531,-449.04 531,-449.04 557.88,-294.96 557.88,-294.96 557.88,-294.96 589.43,-266.95 618.91,-240.79"/>
<polygon fill="#8c9aa8" stroke="#8c9aa8" points="620.28,-242.61 623.63,-236.59 617.26,-239.21 620.28,-242.61"/>
<text xml:space="preserve" text-anchor="middle" x="568.44" y="-339.6" font-family="Arial" font-size="10.00">1 : N</text>
</g>
<!-- rfid_cards&#45;&gt;session_participants -->
<g id="edge15" class="edge">
<title>rfid_cards&#45;&gt;session_participants</title>
<path fill="none" stroke="#8c9aa8" d="M326.47,-808.68C237.65,-789.9 30,-746 30,-746 30,-746 0,-676.16 0,-676.16 0,-676.16 0,-676.16 0,-341.6 0,-341.6 30,-294.96 30,-294.96 30,-294.96 209.33,-246.36 316.25,-217.39"/>
<polygon fill="#8c9aa8" stroke="#8c9aa8" points="316.68,-219.63 322.36,-215.73 315.49,-215.24 316.68,-219.63"/>
<text xml:space="preserve" text-anchor="middle" x="10.56" y="-513.68" font-family="Arial" font-size="10.00">1 : N</text>
</g>
<!-- devices&#45;&gt;meters -->
<g id="edge7" class="edge">
<title>devices&#45;&gt;meters</title>
<path fill="none" stroke="#8c9aa8" d="M138.2,-642.87C154.09,-622.32 175.28,-594.91 193.78,-570.98"/>
<polygon fill="#8c9aa8" stroke="#8c9aa8" points="195.57,-572.39 197.75,-565.85 191.97,-569.6 195.57,-572.39"/>
<text xml:space="preserve" text-anchor="middle" x="170.66" y="-614.12" font-family="Arial" font-size="10.00">1 : N</text>
</g>
<!-- device_events -->
<g id="node10" class="node">
<title>device_events</title>
<path fill="#f5f8fa" stroke="#ccd5dd" d="M135.35,-548.72C135.35,-548.72 54.65,-548.72 54.65,-548.72 48.65,-548.72 42.65,-542.72 42.65,-536.72 42.65,-536.72 42.65,-496.64 42.65,-496.64 42.65,-490.64 48.65,-484.64 54.65,-484.64 54.65,-484.64 135.35,-484.64 135.35,-484.64 141.35,-484.64 147.35,-490.64 147.35,-496.64 147.35,-496.64 147.35,-536.72 147.35,-536.72 147.35,-542.72 141.35,-548.72 135.35,-548.72"/>
<text xml:space="preserve" text-anchor="middle" x="95" y="-528.38" font-family="Arial" font-size="13.00">device_events</text>
<text xml:space="preserve" text-anchor="middle" x="95" y="-512.78" font-family="Arial" font-size="13.00">id</text>
<text xml:space="preserve" text-anchor="middle" x="95" y="-497.18" font-family="Arial" font-size="13.00">device_id</text>
</g>
<!-- devices&#45;&gt;device_events -->
<g id="edge11" class="edge">
<title>devices&#45;&gt;device_events</title>
<path fill="none" stroke="#8c9aa8" d="M110.2,-642.87C107.19,-618.11 102.98,-583.4 99.75,-556.8"/>
<polygon fill="#8c9aa8" stroke="#8c9aa8" points="102.05,-556.86 99.01,-550.69 97.53,-557.41 102.05,-556.86"/>
<text xml:space="preserve" text-anchor="middle" x="117.87" y="-614.12" font-family="Arial" font-size="10.00">1 : N</text>
</g>
<!-- communal_loads -->
<g id="node7" class="node">
<title>communal_loads</title>
<path fill="#f5f8fa" stroke="#ccd5dd" d="M286.94,-707.2C286.94,-707.2 191.06,-707.2 191.06,-707.2 185.06,-707.2 179.06,-701.2 179.06,-695.2 179.06,-695.2 179.06,-655.12 179.06,-655.12 179.06,-649.12 185.06,-643.12 191.06,-643.12 191.06,-643.12 286.94,-643.12 286.94,-643.12 292.94,-643.12 298.94,-649.12 298.94,-655.12 298.94,-655.12 298.94,-695.2 298.94,-695.2 298.94,-701.2 292.94,-707.2 286.94,-707.2"/>
<text xml:space="preserve" text-anchor="middle" x="239" y="-686.86" font-family="Arial" font-size="13.00">communal_loads</text>
<text xml:space="preserve" text-anchor="middle" x="239" y="-671.26" font-family="Arial" font-size="13.00">id</text>
<text xml:space="preserve" text-anchor="middle" x="239" y="-655.66" font-family="Arial" font-size="13.00">property_id</text>
</g>
<!-- communal_loads&#45;&gt;meters -->
<g id="edge9" class="edge">
<title>communal_loads&#45;&gt;meters</title>
<path fill="none" stroke="#8c9aa8" d="M238.2,-642.87C237.69,-622.76 237,-596.08 236.4,-572.51"/>
<polygon fill="#8c9aa8" stroke="#8c9aa8" points="238.68,-572.61 236.24,-566.17 234.13,-572.73 238.68,-572.61"/>
<text xml:space="preserve" text-anchor="middle" x="248.15" y="-614.12" font-family="Arial" font-size="10.00">1 : N</text>
</g>
<!-- meter_readings -->
<g id="node9" class="node">
<title>meter_readings</title>
<path fill="#f5f8fa" stroke="#ccd5dd" d="M278.96,-374.64C278.96,-374.64 191.04,-374.64 191.04,-374.64 185.04,-374.64 179.04,-368.64 179.04,-362.64 179.04,-362.64 179.04,-322.56 179.04,-322.56 179.04,-316.56 185.04,-310.56 191.04,-310.56 191.04,-310.56 278.96,-310.56 278.96,-310.56 284.96,-310.56 290.96,-316.56 290.96,-322.56 290.96,-322.56 290.96,-362.64 290.96,-362.64 290.96,-368.64 284.96,-374.64 278.96,-374.64"/>
<text xml:space="preserve" text-anchor="middle" x="235" y="-354.3" font-family="Arial" font-size="13.00">meter_readings</text>
<text xml:space="preserve" text-anchor="middle" x="235" y="-338.7" font-family="Arial" font-size="13.00">id</text>
<text xml:space="preserve" text-anchor="middle" x="235" y="-323.1" font-family="Arial" font-size="13.00">meter_id</text>
</g>
<!-- meters&#45;&gt;meter_readings -->
<g id="edge10" class="edge">
<title>meters&#45;&gt;meter_readings</title>
<path fill="none" stroke="#8c9aa8" d="M235,-468.66C235,-441.81 235,-408.53 235,-383.05"/>
<polygon fill="#8c9aa8" stroke="#8c9aa8" points="237.28,-383.09 235,-376.59 232.73,-383.09 237.28,-383.09"/>
<text xml:space="preserve" text-anchor="middle" x="245.56" y="-440.04" font-family="Arial" font-size="10.00">1 : N</text>
</g>
<!-- usage_sessions -->
<g id="node11" class="node">
<title>usage_sessions</title>
<path fill="#f5f8fa" stroke="#ccd5dd" d="M426.41,-390.24C426.41,-390.24 335.59,-390.24 335.59,-390.24 329.59,-390.24 323.59,-384.24 323.59,-378.24 323.59,-378.24 323.59,-306.96 323.59,-306.96 323.59,-300.96 329.59,-294.96 335.59,-294.96 335.59,-294.96 426.41,-294.96 426.41,-294.96 432.41,-294.96 438.41,-300.96 438.41,-306.96 438.41,-306.96 438.41,-378.24 438.41,-378.24 438.41,-384.24 432.41,-390.24 426.41,-390.24"/>
<text xml:space="preserve" text-anchor="middle" x="381" y="-369.9" font-family="Arial" font-size="13.00">usage_sessions</text>
<text xml:space="preserve" text-anchor="middle" x="381" y="-354.3" font-family="Arial" font-size="13.00">id</text>
<text xml:space="preserve" text-anchor="middle" x="381" y="-338.7" font-family="Arial" font-size="13.00">meter_id</text>
<text xml:space="preserve" text-anchor="middle" x="381" y="-323.1" font-family="Arial" font-size="13.00">start_event_id</text>
<text xml:space="preserve" text-anchor="middle" x="381" y="-307.5" font-family="Arial" font-size="13.00">end_event_id</text>
</g>
<!-- meters&#45;&gt;usage_sessions -->
<g id="edge12" class="edge">
<title>meters&#45;&gt;usage_sessions</title>
<path fill="none" stroke="#8c9aa8" d="M277.42,-468.56C295.72,-448.24 313,-429.04 313,-429.04 313,-429.04 325.06,-413.89 339.02,-396.34"/>
<polygon fill="#8c9aa8" stroke="#8c9aa8" points="340.61,-398.01 342.87,-391.5 337.05,-395.17 340.61,-398.01"/>
<text xml:space="preserve" text-anchor="middle" x="315.45" y="-440.04" font-family="Arial" font-size="10.00">1 : N</text>
</g>
<!-- period_meter_totals -->
<g id="node14" class="node">
<title>period_meter_totals</title>
<path fill="#f5f8fa" stroke="#ccd5dd" d="M714.25,-390.24C714.25,-390.24 601.75,-390.24 601.75,-390.24 595.75,-390.24 589.75,-384.24 589.75,-378.24 589.75,-378.24 589.75,-306.96 589.75,-306.96 589.75,-300.96 595.75,-294.96 601.75,-294.96 601.75,-294.96 714.25,-294.96 714.25,-294.96 720.25,-294.96 726.25,-300.96 726.25,-306.96 726.25,-306.96 726.25,-378.24 726.25,-378.24 726.25,-384.24 720.25,-390.24 714.25,-390.24"/>
<text xml:space="preserve" text-anchor="middle" x="658" y="-369.9" font-family="Arial" font-size="13.00">period_meter_totals</text>
<text xml:space="preserve" text-anchor="middle" x="658" y="-354.3" font-family="Arial" font-size="13.00">id</text>
<text xml:space="preserve" text-anchor="middle" x="658" y="-338.7" font-family="Arial" font-size="13.00">billing_period_id</text>
<text xml:space="preserve" text-anchor="middle" x="658" y="-323.1" font-family="Arial" font-size="13.00">meter_id</text>
<text xml:space="preserve" text-anchor="middle" x="658" y="-307.5" font-family="Arial" font-size="13.00">start_reading_id</text>
</g>
<!-- meters&#45;&gt;period_meter_totals -->
<g id="edge18" class="edge">
<title>meters&#45;&gt;period_meter_totals</title>
<path fill="none" stroke="#8c9aa8" d="M300.6,-476.79C308.59,-472.05 314,-468.84 314,-468.84 314,-468.84 573,-429.04 573,-429.04 573,-429.04 588.34,-413.62 605.98,-395.88"/>
<polygon fill="#8c9aa8" stroke="#8c9aa8" points="607.48,-397.61 610.45,-391.39 604.26,-394.4 607.48,-397.61"/>
<text xml:space="preserve" text-anchor="middle" x="527.62" y="-440.04" font-family="Arial" font-size="10.00">1 : N</text>
</g>
<!-- usage_sessions&#45;&gt;session_participants -->
<g id="edge13" class="edge">
<title>usage_sessions&#45;&gt;session_participants</title>
<path fill="none" stroke="#8c9aa8" d="M385.18,-294.83C386.44,-280.84 387.82,-265.36 389.12,-250.91"/>
<polygon fill="#8c9aa8" stroke="#8c9aa8" points="391.37,-251.18 389.69,-244.51 386.84,-250.78 391.37,-251.18"/>
<text xml:space="preserve" text-anchor="middle" x="398.45" y="-265.96" font-family="Arial" font-size="10.00">1 : N</text>
</g>
<!-- bill_session_allocations -->
<g id="node17" class="node">
<title>bill_session_allocations</title>
<path fill="#f5f8fa" stroke="#ccd5dd" d="M735.73,-95.68C735.73,-95.68 602.27,-95.68 602.27,-95.68 596.27,-95.68 590.27,-89.68 590.27,-83.68 590.27,-83.68 590.27,-28 590.27,-28 590.27,-22 596.27,-16 602.27,-16 602.27,-16 735.73,-16 735.73,-16 741.73,-16 747.73,-22 747.73,-28 747.73,-28 747.73,-83.68 747.73,-83.68 747.73,-89.68 741.73,-95.68 735.73,-95.68"/>
<text xml:space="preserve" text-anchor="middle" x="669" y="-75.34" font-family="Arial" font-size="13.00">bill_session_allocations</text>
<text xml:space="preserve" text-anchor="middle" x="669" y="-59.74" font-family="Arial" font-size="13.00">id</text>
<text xml:space="preserve" text-anchor="middle" x="669" y="-44.14" font-family="Arial" font-size="13.00">bill_share_id</text>
<text xml:space="preserve" text-anchor="middle" x="669" y="-28.54" font-family="Arial" font-size="13.00">session_participant_id</text>
</g>
<!-- session_participants&#45;&gt;bill_session_allocations -->
<g id="edge24" class="edge">
<title>session_participants&#45;&gt;bill_session_allocations</title>
<path fill="none" stroke="#8c9aa8" d="M464.11,-159.27C500.51,-141.07 545.29,-118.69 583.69,-99.49"/>
<polygon fill="#8c9aa8" stroke="#8c9aa8" points="584.63,-101.56 589.42,-96.62 582.59,-97.49 584.63,-101.56"/>
<text xml:space="preserve" text-anchor="middle" x="558.52" y="-118.68" font-family="Arial" font-size="10.00">1 : N</text>
</g>
<!-- billing_periods&#45;&gt;period_meter_totals -->
<g id="edge17" class="edge">
<title>billing_periods&#45;&gt;period_meter_totals</title>
<path fill="none" stroke="#8c9aa8" d="M753.2,-468.66C736.31,-446.46 716.07,-419.88 698.6,-396.93"/>
<polygon fill="#8c9aa8" stroke="#8c9aa8" points="700.42,-395.56 694.67,-391.77 696.8,-398.32 700.42,-395.56"/>
<text xml:space="preserve" text-anchor="middle" x="745.79" y="-440.04" font-family="Arial" font-size="10.00">1 : N</text>
</g>
<!-- billing_periods&#45;&gt;room_bills -->
<g id="edge19" class="edge">
<title>billing_periods&#45;&gt;room_bills</title>
<path fill="none" stroke="#8c9aa8" d="M793.65,-468.66C796.05,-444.32 798.98,-414.71 801.38,-390.41"/>
<polygon fill="#8c9aa8" stroke="#8c9aa8" points="803.61,-390.91 801.99,-384.22 799.08,-390.47 803.61,-390.91"/>
<text xml:space="preserve" text-anchor="middle" x="807.04" y="-440.04" font-family="Arial" font-size="10.00">1 : N</text>
</g>
<!-- room_bills&#45;&gt;bill_shares -->
<g id="edge21" class="edge">
<title>room_bills&#45;&gt;bill_shares</title>
<path fill="none" stroke="#8c9aa8" d="M768.93,-302.29C751.11,-283.39 729.68,-260.66 711.23,-241.11"/>
<polygon fill="#8c9aa8" stroke="#8c9aa8" points="713.02,-239.68 706.9,-236.52 709.71,-242.81 713.02,-239.68"/>
<text xml:space="preserve" text-anchor="middle" x="752.17" y="-265.96" font-family="Arial" font-size="10.00">1 : N</text>
</g>
<!-- bill_shares&#45;&gt;bill_session_allocations -->
<g id="edge23" class="edge">
<title>bill_shares&#45;&gt;bill_session_allocations</title>
<path fill="none" stroke="#8c9aa8" d="M669,-155.29C669,-139.18 669,-120.38 669,-103.54"/>
<polygon fill="#8c9aa8" stroke="#8c9aa8" points="671.28,-103.98 669,-97.48 666.73,-103.98 671.28,-103.98"/>
<text xml:space="preserve" text-anchor="middle" x="679.56" y="-118.68" font-family="Arial" font-size="10.00">1 : N</text>
</g>
</g>
</svg>
